<svg width="24" height="22" viewBox="0 0 24 22" fill="none" xmlns="http://www.w3.org/2000/svg">
<path d="M23.362 16.1C23.362 15.8573 23.362 15.4933 23.362 15.008C23.3793 14.1067 23.3793 13.4307 23.362 12.98C23.362 12.9107 23.2927 12.8067 23.154 12.668L23.102 12.616C19.15 9.46133 16.186 7.104 14.21 5.544C13.9327 5.336 13.8027 5.06733 13.82 4.738C13.8373 4.35667 13.8373 3.776 13.82 2.996V2.138C13.82 1.58333 13.6467 1.124 13.3 0.76C12.9533 0.395999 12.52 0.213999 12 0.213999C11.48 0.213999 11.0467 0.395999 10.7 0.76C10.3707 1.124 10.1973 1.58333 10.18 2.138V2.996C10.1627 3.776 10.1627 4.35667 10.18 4.738C10.1973 5.06733 10.0673 5.336 9.79 5.544C7.814 7.104 4.85 9.46133 0.898 12.616L0.846 12.668C0.707333 12.8067 0.638 12.9107 0.638 12.98C0.620667 13.4307 0.620667 14.1067 0.638 15.008V16.1L10.18 11.264V16.542C10.18 16.646 10.0933 16.7847 9.92 16.958L6.982 19.324C6.826 19.428 6.748 19.5147 6.748 19.584C6.73067 19.8613 6.73067 20.286 6.748 20.858V21.586C8.16933 21.014 9.44333 20.5113 10.57 20.078C10.57 20.4767 10.7087 20.8233 10.986 21.118C11.2807 21.4127 11.6187 21.56 12 21.56C12.3813 21.56 12.7107 21.4127 12.988 21.118C13.2827 20.8233 13.4387 20.4767 13.456 20.078L17.278 21.586C17.278 20.6847 17.2693 20.0173 17.252 19.584C17.252 19.532 17.2 19.454 17.096 19.35L17.018 19.298C16.3593 18.778 15.3887 17.998 14.106 16.958C13.9327 16.8193 13.846 16.6807 13.846 16.542C13.8287 15.398 13.82 13.6387 13.82 11.264C18.032 13.3787 21.2127 14.9907 23.362 16.1Z" fill="#14008F"/>
</svg>
