<svg width="21" height="21" viewBox="0 0 21 21" fill="none" xmlns="http://www.w3.org/2000/svg">
<path d="M10.5 21C4.6996 21 0 16.3004 0 10.5C0 4.6996 4.6996 0 10.5 0C16.3004 0 21 4.6996 21 10.5C21 16.3004 16.3004 21 10.5 21ZM11.7236 14.9202L8.52702 11.8548H16.2581C16.8212 11.8548 17.2742 11.4018 17.2742 10.8387V10.1613C17.2742 9.59819 16.8212 9.14516 16.2581 9.14516H8.52702L11.7236 6.07984C12.1343 5.68609 12.1427 5.02984 11.7405 4.62762L11.2748 4.16613C10.8768 3.76815 10.2333 3.76815 9.83952 4.16613L4.22117 9.78024C3.82319 10.1782 3.82319 10.8218 4.22117 11.2155L9.83952 16.8339C10.2375 17.2319 10.881 17.2319 11.2748 16.8339L11.7405 16.3724C12.1427 15.9702 12.1343 15.3139 11.7236 14.9202Z" fill="black"/>
</svg>
