<svg xmlns="http://www.w3.org/2000/svg" viewBox="0 0 128.59 275.93"><defs><style>.cls-1{fill:#1ac4ff;}</style></defs><title>zxAsset 40</title><g id="Layer_2" data-name="Layer 2"><g id="Layer_1-2" data-name="Layer 1"><polygon class="cls-1" points="27.61 266.71 26.39 270.11 24.29 275.93 17.77 275.93 17.77 266.71 27.61 266.71"/><polygon class="cls-1" points="113.21 266.71 113.21 275.93 106.69 275.93 104.59 270.11 103.36 266.71 113.21 266.71"/><path class="cls-1" d="M128.59,97.92V249.55A11.41,11.41,0,0,1,117.19,261H11.42A11.41,11.41,0,0,1,0,249.55V97.92a11.41,11.41,0,0,1,11.42-11.4H117.19A11.41,11.41,0,0,1,128.59,97.92Z"/><path class="cls-1" d="M98.23,81.13H88.67V13.32A3.77,3.77,0,0,0,84.9,9.56H46.58a3.77,3.77,0,0,0-3.77,3.76V81.13H33.25V13.32A13.34,13.34,0,0,1,46.58,0H84.9A13.34,13.34,0,0,1,98.23,13.32Z"/><path class="cls-1" d="M82.87,118.87h-5V83.13a2,2,0,0,0-2-2H55.64a2,2,0,0,0-2,2v35.74h-5V83.13a7,7,0,0,1,7-7h20.2a7,7,0,0,1,7,7Z"/></g></g></svg>