<svg width="15" height="15" viewBox="0 0 15 15" fill="none" xmlns="http://www.w3.org/2000/svg">
<path d="M1.02267 4.20464C0.850895 4.20464 0.686159 4.27288 0.564697 4.39434C0.443236 4.5158 0.375 4.68054 0.375 4.85231C0.375 5.02408 0.443236 5.18882 0.564697 5.31028C0.686159 5.43174 0.850895 5.49998 1.02267 5.49998H1.67033C0.884066 6.08935 0.375 7.02977 0.375 8.09064V13.272C0.375 13.6155 0.511472 13.945 0.754394 14.1879C0.997317 14.4308 1.32679 14.5673 1.67033 14.5673C2.01388 14.5673 2.34335 14.4308 2.58627 14.1879C2.8292 13.945 2.96567 13.6155 2.96567 13.272V12.6243H12.033V13.272C12.033 13.6155 12.1695 13.945 12.4124 14.1879C12.6553 14.4308 12.9848 14.5673 13.3283 14.5673C13.6719 14.5673 14.0014 14.4308 14.2443 14.1879C14.4872 13.945 14.6237 13.6155 14.6237 13.272V8.09064C14.6237 7.02977 14.1146 6.08935 13.3283 5.49998H13.976C14.1478 5.49998 14.3125 5.43174 14.434 5.31028C14.5554 5.18882 14.6237 5.02408 14.6237 4.85231C14.6237 4.68054 14.5554 4.5158 14.434 4.39434C14.3125 4.27288 14.1478 4.20464 13.976 4.20464H13.1211L12.9423 3.12952C12.8412 2.52485 12.5289 1.97565 12.0609 1.57956C11.593 1.18348 10.9997 0.966182 10.3866 0.966309H4.61204C3.99896 0.966182 3.40571 1.18348 2.93777 1.57956C2.46982 1.97565 2.1575 2.52485 2.05634 3.12952L1.87759 4.20464H1.02267ZM3.07577 4.89506L3.33484 3.34325C3.38509 3.041 3.54084 2.76636 3.77444 2.5681C4.00804 2.36983 4.30435 2.26079 4.61074 2.26035H10.3853C10.6922 2.26018 10.9891 2.36894 11.2232 2.56726C11.4574 2.76557 11.6135 3.04057 11.6638 3.34325L11.9229 4.89506C11.7448 4.86548 11.5646 4.85075 11.384 4.85101H3.61204C3.4281 4.85101 3.25064 4.86656 3.07577 4.89506ZM4.90867 9.06085C4.90867 9.31851 4.80631 9.56561 4.62412 9.7478C4.44193 9.92999 4.19483 10.0323 3.93717 10.0323C3.67951 10.0323 3.43241 9.92999 3.25021 9.7478C3.06802 9.56561 2.96567 9.31851 2.96567 9.06085C2.96567 8.80319 3.06802 8.55609 3.25021 8.3739C3.43241 8.1917 3.67951 8.08935 3.93717 8.08935C4.19483 8.08935 4.44193 8.1917 4.62412 8.3739C4.80631 8.55609 4.90867 8.80319 4.90867 9.06085ZM11.0615 10.0323C10.8038 10.0323 10.5567 9.92999 10.3746 9.7478C10.1924 9.56561 10.09 9.31851 10.09 9.06085C10.09 8.80319 10.1924 8.55609 10.3746 8.3739C10.5567 8.1917 10.8038 8.08935 11.0615 8.08935C11.3192 8.08935 11.5663 8.1917 11.7485 8.3739C11.9307 8.55609 12.033 8.80319 12.033 9.06085C12.033 9.31851 11.9307 9.56561 11.7485 9.7478C11.5663 9.92999 11.3192 10.0323 11.0615 10.0323Z" fill="#4E4E4E"/>
</svg>
