<svg width="15" height="14" viewBox="0 0 15 14" fill="none" xmlns="http://www.w3.org/2000/svg">
<path d="M1.02291 3.35532C0.851139 3.35532 0.686403 3.42356 0.564942 3.54502C0.44348 3.66648 0.375244 3.83122 0.375244 4.00299C0.375244 4.17476 0.44348 4.3395 0.564942 4.46096C0.686403 4.58242 0.851139 4.65066 1.02291 4.65066H1.67058C0.88431 5.24004 0.375244 6.18045 0.375244 7.24133V12.4227C0.375244 12.7662 0.511716 13.0957 0.754639 13.3386C0.997561 13.5815 1.32703 13.718 1.67058 13.718C2.01412 13.718 2.3436 13.5815 2.58652 13.3386C2.82944 13.0957 2.96591 12.7662 2.96591 12.4227V11.775H12.0332V12.4227C12.0332 12.7662 12.1697 13.0957 12.4126 13.3386C12.6556 13.5815 12.985 13.718 13.3286 13.718C13.6721 13.718 14.0016 13.5815 14.2445 13.3386C14.4874 13.0957 14.6239 12.7662 14.6239 12.4227V7.24133C14.6239 6.18045 14.1149 5.24004 13.3286 4.65066H13.9763C14.148 4.65066 14.3128 4.58242 14.4342 4.46096C14.5557 4.3395 14.6239 4.17476 14.6239 4.00299C14.6239 3.83122 14.5557 3.66648 14.4342 3.54502C14.3128 3.42356 14.148 3.35532 13.9763 3.35532H13.1213L12.9426 2.2802C12.8414 1.67553 12.5291 1.12633 12.0612 0.730243C11.5932 0.334159 11 0.116863 10.3869 0.116989H4.61228C3.99921 0.116863 3.40596 0.334159 2.93801 0.730243C2.47006 1.12633 2.15774 1.67553 2.05659 2.2802L1.87783 3.35532H1.02291ZM3.07602 4.04574L3.33508 2.49393C3.38533 2.19168 3.54109 1.91704 3.77468 1.71878C4.00828 1.52051 4.3046 1.41148 4.61099 1.41103H10.3856C10.6924 1.41086 10.9894 1.51962 11.2235 1.71794C11.4576 1.91625 11.6138 2.19125 11.6641 2.49393L11.9231 4.04574C11.7451 4.01616 11.5648 4.00143 11.3843 4.0017H3.61228C3.42835 4.0017 3.25089 4.01724 3.07602 4.04574ZM4.90891 8.21153C4.90891 8.46919 4.80656 8.71629 4.62437 8.89848C4.44218 9.08068 4.19507 9.18303 3.93741 9.18303C3.67975 9.18303 3.43265 9.08068 3.25046 8.89848C3.06827 8.71629 2.96591 8.46919 2.96591 8.21153C2.96591 7.95387 3.06827 7.70677 3.25046 7.52458C3.43265 7.34238 3.67975 7.24003 3.93741 7.24003C4.19507 7.24003 4.44218 7.34238 4.62437 7.52458C4.80656 7.70677 4.90891 7.95387 4.90891 8.21153ZM11.0617 9.18303C10.8041 9.18303 10.557 9.08068 10.3748 8.89848C10.1926 8.71629 10.0902 8.46919 10.0902 8.21153C10.0902 7.95387 10.1926 7.70677 10.3748 7.52458C10.557 7.34238 10.8041 7.24003 11.0617 7.24003C11.3194 7.24003 11.5665 7.34238 11.7487 7.52458C11.9309 7.70677 12.0332 7.95387 12.0332 8.21153C12.0332 8.46919 11.9309 8.71629 11.7487 8.89848C11.5665 9.08068 11.3194 9.18303 11.0617 9.18303Z" fill="white"/>
</svg>
