<svg width="24" height="20" viewBox="0 0 24 20" fill="none" xmlns="http://www.w3.org/2000/svg">
<path d="M23.336 9.328C23.3187 8.808 23.1627 8.34867 22.868 7.95C22.5907 7.55133 22.2007 7.26533 21.698 7.092C21.4207 7.00533 21.23 6.82333 21.126 6.546C20.9007 5.93933 20.554 5.038 20.086 3.842L19.488 2.282C19.228 1.58867 18.8813 1.10333 18.448 0.825998C18.032 0.531332 17.4513 0.383999 16.706 0.383999H7.268C6.54 0.383999 5.95933 0.531332 5.526 0.825998C5.11 1.10333 4.772 1.58 4.512 2.256L2.796 6.624C2.72667 6.832 2.614 6.962 2.458 7.014C1.81667 7.274 1.34867 7.62067 1.054 8.054C0.776667 8.48733 0.638 9.05067 0.638 9.744V15.516C0.638 15.5853 0.664 15.62 0.716 15.62H1.184C1.56533 15.6373 1.84267 15.6373 2.016 15.62C2.20667 15.6027 2.33667 15.6287 2.406 15.698C2.47533 15.7673 2.50133 15.8887 2.484 16.062V16.556C2.46667 17.2147 2.47533 17.7087 2.51 18.038C2.54467 18.506 2.75267 18.87 3.134 19.13C3.53267 19.4073 3.94867 19.494 4.382 19.39C4.81533 19.286 5.14467 19.0867 5.37 18.792C5.59533 18.4973 5.708 18.1247 5.708 17.674C5.72533 17.3793 5.72533 16.9547 5.708 16.4V15.75C5.708 15.7153 5.71667 15.6893 5.734 15.672C5.76867 15.6547 5.79467 15.646 5.812 15.646H18.188C18.24 15.646 18.266 15.6807 18.266 15.75C18.266 16.582 18.2747 17.2147 18.292 17.648C18.3093 18.2893 18.526 18.7747 18.942 19.104C19.358 19.4507 19.852 19.5287 20.424 19.338C20.736 19.2513 20.9873 19.0867 21.178 18.844C21.3687 18.6013 21.4727 18.3153 21.49 17.986C21.5073 17.6567 21.5073 17.1627 21.49 16.504V15.724C21.49 15.6893 21.4987 15.6633 21.516 15.646C21.5507 15.6287 21.5767 15.62 21.594 15.62H23.258C23.3273 15.62 23.362 15.594 23.362 15.542V13.748C23.3793 11.772 23.3707 10.2987 23.336 9.328ZM4.148 12.084C3.66267 12.084 3.24667 11.9107 2.9 11.564C2.57067 11.2173 2.41467 10.81 2.432 10.342C2.44933 9.85667 2.62267 9.44933 2.952 9.12C3.29867 8.77333 3.69733 8.6 4.148 8.6C4.616 8.6 5.01467 8.77333 5.344 9.12C5.67333 9.46667 5.82933 9.88267 5.812 10.368C5.812 10.8533 5.64733 11.2607 5.318 11.59C5.006 11.9193 4.616 12.084 4.148 12.084ZM4.538 6.936C4.486 6.936 4.46 6.90133 4.46 6.832L4.486 6.676C4.98867 5.30667 5.46533 4.04133 5.916 2.88C6.05467 2.49867 6.21067 2.256 6.384 2.152C6.55733 2.03067 6.84333 1.97 7.242 1.97H11.298V2.178C11.298 2.24733 11.324 2.282 11.376 2.282H12.624C12.676 2.282 12.702 2.24733 12.702 2.178V1.97H16.758C17.382 1.93533 17.8067 2.18667 18.032 2.724L19.514 6.78C19.5313 6.79733 19.54 6.832 19.54 6.884C19.54 6.91867 19.5053 6.936 19.436 6.936H18.5C18.344 6.43333 18.0493 6.026 17.616 5.714C17.2 5.402 16.7233 5.246 16.186 5.246C15.666 5.246 15.1893 5.402 14.756 5.714C14.34 6.026 14.054 6.43333 13.898 6.936H4.538ZM16.212 5.48C16.68 5.48 17.096 5.61867 17.46 5.896C17.8413 6.156 18.1013 6.50267 18.24 6.936H14.184C14.3227 6.50267 14.574 6.156 14.938 5.896C15.3193 5.61867 15.744 5.48 16.212 5.48ZM19.878 12.084C19.41 12.084 19.0113 11.928 18.682 11.616C18.3527 11.2867 18.1793 10.8793 18.162 10.394C18.162 9.89133 18.318 9.46667 18.63 9.12C18.9593 8.77333 19.358 8.6 19.826 8.6C20.294 8.58267 20.7013 8.756 21.048 9.12C21.3947 9.46667 21.568 9.88267 21.568 10.368C21.568 10.836 21.3947 11.2433 21.048 11.59C20.7187 11.9193 20.3287 12.084 19.878 12.084Z" fill="white"/>
</svg>
