<svg width="23" height="23" viewBox="0 0 23 23" fill="none" xmlns="http://www.w3.org/2000/svg">
<path d="M11.5 0.299999C9.55 0.299999 7.73333 0.791666 6.05 1.775C4.41667 2.725 3.10833 4.00833 2.125 5.625C1.125 7.275 0.608333 9.06667 0.575 11C0.541667 13 1.00833 14.8667 1.975 16.6C2.90833 18.2833 4.19167 19.625 5.825 20.625C7.50833 21.6417 9.34167 22.1667 11.325 22.2C13.3583 22.2167 15.2417 21.725 16.975 20.725C18.6083 19.775 19.9167 18.475 20.9 16.825C21.8833 15.175 22.3917 13.3917 22.425 11.475C22.4583 9.45833 21.9833 7.58333 21 5.85C20.0333 4.16667 18.7167 2.825 17.05 1.825C15.35 0.808332 13.5 0.299999 11.5 0.299999ZM11.575 20C9.975 20 8.48333 19.6083 7.1 18.825C5.78333 18.0583 4.73333 17.0083 3.95 15.675C3.15 14.325 2.75 12.8583 2.75 11.275C2.75 9.675 3.15 8.19167 3.95 6.825C4.71667 5.50833 5.75833 4.46667 7.075 3.7C8.44167 2.9 9.91667 2.5 11.5 2.5C13.0833 2.5 14.55 2.9 15.9 3.7C17.2167 4.46667 18.2667 5.50833 19.05 6.825C19.85 8.19167 20.25 9.66667 20.25 11.25C20.25 12.7833 19.8667 14.2167 19.1 15.55C18.35 16.8833 17.325 17.95 16.025 18.75C14.6583 19.5667 13.175 19.9833 11.575 20ZM12.25 4.7H10.775C10.725 4.7 10.6833 4.71667 10.65 4.75C10.6167 4.78333 10.6 4.825 10.6 4.875V10.125C10.6 10.175 10.575 10.2167 10.525 10.25C10.4917 10.2833 10.45 10.3 10.4 10.3H7.05C7 10.3 6.95833 10.3167 6.925 10.35C6.89167 10.3833 6.875 10.425 6.875 10.475V11.975C6.875 12.025 6.89167 12.0667 6.925 12.1C6.95833 12.1333 7 12.15 7.05 12.15H12.25C12.3 12.15 12.3417 12.1333 12.375 12.1C12.4083 12.0667 12.425 12.025 12.425 11.975V4.875C12.425 4.825 12.4083 4.78333 12.375 4.75C12.3417 4.71667 12.3 4.7 12.25 4.7Z" fill="black"/>
</svg>
