<svg width="16" height="18" viewBox="0 0 16 18" fill="none" xmlns="http://www.w3.org/2000/svg">
<path d="M10.923 0.174807C11.2614 0.173926 11.529 0.465259 11.5298 0.853702L11.5306 1.51582C13.7266 1.70651 15.1771 3.36446 15.1795 5.907L15.1882 13.3492C15.1913 16.1213 13.6195 17.8269 11.1001 17.8313L4.94587 17.8402C2.44216 17.8437 0.850684 16.0975 0.847536 13.3175L0.838872 5.96262C0.835729 3.40331 2.23516 1.74977 4.43112 1.52642L4.43033 0.864296C4.42954 0.475853 4.68928 0.183637 5.0356 0.183637C5.38191 0.182754 5.64165 0.474087 5.64244 0.862531L5.64323 1.48051L10.3185 1.47345L10.3177 0.855468C10.3169 0.467024 10.5767 0.175692 10.923 0.174807ZM11.2441 12.7101H11.2362C10.8742 12.7198 10.5837 13.0561 10.5916 13.4622C10.5924 13.8683 10.8844 14.2029 11.2465 14.2118C11.6156 14.2109 11.9147 13.8745 11.9139 13.4596C11.9139 13.0447 11.614 12.7101 11.2441 12.7101ZM4.75855 12.7109C4.39649 12.7286 4.11314 13.065 4.11392 13.4711C4.13045 13.8772 4.42954 14.195 4.7916 14.1764C5.14658 14.1588 5.42914 13.8224 5.41261 13.4163C5.40474 13.0191 5.11273 12.7101 4.75855 12.7109ZM8.00132 12.7065C7.63927 12.7251 7.3567 13.0605 7.3567 13.4666C7.37323 13.8727 7.67232 14.1897 8.03438 14.172C8.38857 14.1535 8.67192 13.818 8.65539 13.411C8.64752 13.0146 8.35551 12.7057 8.00132 12.7065ZM4.75461 9.53277C4.39255 9.55043 4.10999 9.88679 4.11078 10.2929C4.12652 10.699 4.4264 11.0168 4.78845 10.9983C5.14264 10.9806 5.4252 10.6443 5.40867 10.2382C5.4008 9.84088 5.10958 9.53189 4.75461 9.53277ZM7.99817 9.50187C7.63612 9.51953 7.35277 9.85589 7.35355 10.262C7.3693 10.6681 7.66917 10.985 8.03123 10.9674C8.38542 10.9488 8.66798 10.6134 8.65224 10.2073C8.64358 9.80998 8.35236 9.50099 7.99817 9.50187ZM11.241 9.50629C10.8789 9.51512 10.5955 9.84176 10.5963 10.2479V10.2576C10.6042 10.6637 10.9033 10.9718 11.2661 10.963C11.6203 10.9532 11.9029 10.6169 11.895 10.2108C11.8785 9.82234 11.5944 9.50541 11.241 9.50629ZM10.3201 2.833L5.6448 2.84006L5.64559 3.55427C5.64559 3.93477 5.38664 4.23493 5.04032 4.23493C4.694 4.23581 4.43348 3.93653 4.43348 3.55604L4.43269 2.87626C2.89788 3.04664 2.04862 4.046 2.05098 5.96086L2.05177 6.23541L13.9682 6.21776V5.90877C13.9343 4.01069 13.0749 3.01486 11.5322 2.86655L11.533 3.54632C11.533 3.92594 11.2661 4.22698 10.9277 4.22698C10.5814 4.22787 10.3209 3.92771 10.3209 3.54809L10.3201 2.833Z" fill="#0393FB"/>
</svg>
