<svg width="24" height="24" viewBox="0 0 24 24" fill="none" xmlns="http://www.w3.org/2000/svg">
<path d="M18.7496 11.5557C18.7416 11.695 18.7096 11.7956 18.6455 11.8498C18.5814 11.9117 18.4773 11.9427 18.3252 11.9582H17.0278L17.0999 12.0433C17.8767 12.7631 18.221 13.6221 18.141 14.6205C18.0929 15.1313 18.0128 15.6344 17.8927 16.1297C17.7726 16.6328 17.4923 16.9733 17.0438 17.1591C17.0198 17.1668 17.0038 17.19 16.9878 17.2287C16.9717 17.2597 16.9637 17.2984 16.9637 17.3293C16.9557 17.5151 16.9477 17.8092 16.9477 18.2039C16.9477 18.3587 16.8997 18.4825 16.8116 18.5676C16.7235 18.6528 16.5873 18.6992 16.4192 18.6992H15.6824C15.5302 18.6992 15.4181 18.6605 15.322 18.5754C15.2339 18.4902 15.1779 18.3742 15.1699 18.2194V17.4764L13.8325 17.5073C12.6793 17.5538 11.8224 17.577 11.2618 17.577C10.7012 17.577 9.84431 17.5615 8.70712 17.5306L7.36973 17.4841V17.7008C7.37773 18.0568 7.36973 18.2968 7.32968 18.4283C7.28964 18.5599 7.19354 18.645 7.03337 18.676C6.90524 18.707 6.65698 18.7224 6.28059 18.707H6.14445C5.77606 18.707 5.59988 18.5444 5.59988 18.2116V17.3526C5.59988 17.2442 5.55183 17.1745 5.46374 17.1358C5.1434 17.012 4.92718 16.8185 4.81506 16.5399C4.36659 15.4177 4.28651 14.3729 4.55879 13.4132C4.68693 12.9101 4.97523 12.4535 5.4317 12.0588L5.53581 11.9582H4.17439C3.94215 11.9582 3.82202 11.8421 3.798 11.6099C3.78999 11.4706 3.78999 11.3235 3.798 11.1765C3.82202 10.9675 3.94215 10.8592 4.15837 10.8437H4.99925C5.19145 10.8437 5.3356 10.9366 5.42369 11.1223C5.45573 11.1765 5.51179 11.2539 5.59187 11.3545L5.69598 11.4861L5.74403 11.4551L5.84814 11.1765C5.9042 10.9752 5.96026 10.8282 6.0003 10.7276L6.68101 9.22614C6.80914 8.91656 7.00935 8.68438 7.28163 8.51411C7.50587 8.35932 7.80218 8.25871 8.17056 8.19679C9.14758 8.042 10.3488 7.98783 11.7663 8.03426C12.2308 8.042 12.9275 8.08844 13.8325 8.16583L14.345 8.19679C14.4731 8.20453 14.6413 8.25097 14.8575 8.32836L14.9056 8.34384C15.274 8.44445 15.5382 8.65342 15.7064 8.97074C16.1068 9.64407 16.4512 10.418 16.7315 11.2848C16.7315 11.308 16.7395 11.3467 16.7635 11.4009L16.7956 11.517L16.9157 11.3854C16.9958 11.308 17.0438 11.2461 17.0518 11.2074C17.1239 11.0681 17.204 10.9675 17.3081 10.9133C17.4122 10.8592 17.5403 10.8359 17.7005 10.8437C17.7886 10.8514 17.9247 10.8514 18.1089 10.8437H18.3332C18.5974 10.8437 18.7256 10.9675 18.7256 11.2229C18.7576 11.308 18.7576 11.4164 18.7496 11.5557ZM7.14549 15.1236C7.32968 14.9533 7.41778 14.7444 7.41778 14.5044C7.41778 14.2645 7.32968 14.0555 7.14549 13.8775C6.9613 13.6995 6.73707 13.6144 6.4808 13.6144C6.21652 13.6144 5.99229 13.6995 5.8081 13.8775C5.6239 14.0555 5.5278 14.2645 5.53581 14.5044C5.54382 14.7444 5.63191 14.9533 5.8161 15.1236C6.0003 15.2939 6.22453 15.379 6.4808 15.379C6.74507 15.379 6.9613 15.2939 7.14549 15.1236ZM6.7691 11.4628L6.69702 11.7105C9.73219 11.3158 12.7593 11.308 15.7945 11.695V11.6254C15.6103 10.7972 15.298 10.0465 14.8575 9.38093C14.8095 9.31127 14.7454 9.27257 14.6733 9.24935L14.2249 9.14874C13.7204 9.04813 13.344 8.99395 13.0957 8.98621C12.2068 8.93978 11.1337 8.93204 9.87634 8.95526C9.19563 8.95526 8.52293 9.05587 7.87425 9.24935C7.8262 9.25709 7.78616 9.28031 7.73811 9.30353C7.69006 9.33449 7.66603 9.36545 7.65002 9.41188L7.54591 9.62859C7.25761 10.1781 7.0574 10.596 6.94528 10.8824C6.90524 11.0062 6.84117 11.1997 6.7691 11.4628ZM13.9446 13.7228C13.9045 13.6686 13.8084 13.6376 13.6643 13.6376H8.84326C8.60301 13.6376 8.51492 13.746 8.587 13.9549L8.97941 15.1623C9.03546 15.2939 9.12356 15.3635 9.25169 15.3635C10.5971 15.3558 11.9425 15.3558 13.2879 15.3635C13.4321 15.3635 13.5282 15.2939 13.5602 15.1468L13.7123 14.6515C13.8165 14.3651 13.8885 14.1484 13.9366 13.9936C13.9846 13.8698 13.9846 13.7847 13.9446 13.7228ZM16.7235 15.1313C16.9077 14.9533 17.0038 14.7444 17.0038 14.5044C17.0118 14.2645 16.9157 14.0555 16.7315 13.8775C16.5473 13.6995 16.3231 13.6144 16.0748 13.6144C15.8265 13.6144 15.6023 13.6995 15.4181 13.8698C15.2339 14.0401 15.1298 14.249 15.1298 14.489C15.1218 14.7289 15.2179 14.9378 15.4021 15.1159C15.5863 15.2939 15.8105 15.379 16.0588 15.379C16.3231 15.3867 16.5473 15.3093 16.7235 15.1313Z" fill="#00ADEE"/>
<path d="M23.0101 12.8869C23.0181 13.7847 22.914 14.6824 22.6978 15.557C22.6897 15.5879 22.6817 15.6112 22.6817 15.6421L22.6577 15.7273L22.6097 15.8898L22.5616 16.0523C22.5456 16.1065 22.5296 16.1607 22.5136 16.2148L22.4014 16.5322C22.3854 16.5863 22.3694 16.6405 22.3454 16.6947L22.2813 16.8495L22.1532 17.1668L22.009 17.4764L21.937 17.6312C21.9129 17.6853 21.8889 17.7318 21.8569 17.7859L21.6967 18.0878C21.6727 18.142 21.6407 18.1884 21.6166 18.2348L21.5285 18.3819L21.4404 18.5289L21.4004 18.6063L21.3524 18.676C21.2242 18.8695 21.1041 19.0629 20.968 19.241L20.8638 19.3803L20.8158 19.4499L20.7918 19.4809L20.7677 19.5118L20.5515 19.7827C20.5195 19.8292 20.4794 19.8756 20.4474 19.9143L20.3513 20.0459L20.1271 20.3013L19.8868 20.5489L19.7667 20.6728C19.7267 20.7114 19.6866 20.7501 19.6386 20.7888L19.3903 21.0288L19.3583 21.0597L19.3262 21.0907L19.2622 21.1449L19.134 21.2609C18.9579 21.4157 18.7737 21.555 18.5895 21.6944L18.5174 21.7485L18.4453 21.795L18.3012 21.8956L18.157 21.9962C18.109 22.0272 18.0609 22.0658 18.0129 22.0968L17.7166 22.2826L17.6445 22.329L17.6044 22.3522L17.5644 22.3754L17.4122 22.4606C17.3081 22.5147 17.212 22.5767 17.1079 22.6308L16.7956 22.7856L16.6434 22.863C16.5874 22.8862 16.5393 22.9094 16.4833 22.9327L16.1629 23.072C16.1389 23.0875 16.1069 23.0952 16.0829 23.1029L16.0028 23.1339L15.8426 23.1958C15.7305 23.2345 15.6264 23.2809 15.5143 23.3196L15.1779 23.428L15.0978 23.4589C15.0738 23.4667 15.0418 23.4744 15.0097 23.4822L14.8416 23.5286C14.7294 23.5596 14.6173 23.5905 14.5052 23.6215L14.1609 23.6989L13.9927 23.7376L13.8165 23.7685L13.4721 23.8304C13.4161 23.8459 13.352 23.8459 13.2959 23.8537L13.1198 23.8769L12.9436 23.9001L12.8555 23.9078C12.8235 23.9078 12.7994 23.9156 12.7674 23.9156C11.8304 24.0084 10.8854 23.993 9.94845 23.8691C9.01148 23.7376 8.09852 23.4976 7.21761 23.1571L7.17756 23.1416L7.13752 23.1262L7.05744 23.0952L6.89727 23.0255L6.7371 22.9559C6.71308 22.9404 6.68105 22.9327 6.65702 22.9172L6.57694 22.8785L6.2566 22.7237L6.17652 22.685C6.15249 22.6695 6.12847 22.654 6.09644 22.6463L5.94428 22.5612L5.79212 22.476C5.74407 22.4451 5.68801 22.4219 5.63996 22.3909L5.33564 22.2052C5.28759 22.1742 5.23153 22.1432 5.18348 22.1123L5.03933 22.0117L4.75103 21.8182L4.47074 21.6092L4.32659 21.5009C4.27854 21.4622 4.2385 21.4235 4.19045 21.3925L3.91816 21.1681C3.89414 21.1526 3.87011 21.1294 3.8541 21.1139L3.79003 21.052L3.6619 20.9359C3.48571 20.7811 3.32555 20.6108 3.15737 20.4483L3.0933 20.3864L3.03724 20.3245L2.91712 20.1929L2.79699 20.0613C2.75695 20.0149 2.71691 19.9762 2.68488 19.9298C2.54073 19.7518 2.38056 19.5738 2.24442 19.388C2.17234 19.2951 2.10027 19.2023 2.0362 19.1094L1.844 18.823L1.7479 18.676L1.65981 18.5289L1.47561 18.2348C1.41956 18.1342 1.3635 18.0336 1.30744 17.933C1.25138 17.8324 1.19532 17.7318 1.14727 17.6234L0.995114 17.3138C0.979097 17.2906 0.971089 17.2597 0.955072 17.2364L0.923038 17.159L0.858972 16.9965L0.794905 16.834C0.77088 16.7798 0.746855 16.7256 0.730838 16.6715L0.610713 16.3464C0.594696 16.2922 0.570671 16.2381 0.554654 16.1839L0.506604 16.0214L0.402495 15.6886L0.314403 15.3558C0.290378 15.2474 0.258345 15.1313 0.23432 15.0152C0.0501276 14.1097 -0.0299559 13.181 0.0100859 12.26C0.058136 11.339 0.218303 10.418 0.490587 9.52797C0.506604 9.47379 0.522621 9.41961 0.546646 9.36544L0.602704 9.20291L0.658763 9.04038L0.690796 8.95525L0.722829 8.87785C0.810921 8.66115 0.891005 8.44444 0.995114 8.23548C1.04316 8.12713 1.09121 8.02652 1.13926 7.91816L1.29943 7.60859L1.37951 7.4538C1.41155 7.39962 1.43557 7.35318 1.46761 7.29901L1.64379 6.99717C1.65981 6.97395 1.67582 6.95073 1.69184 6.91978L1.73989 6.84238L1.83599 6.69533C1.90006 6.59472 1.96412 6.49411 2.0362 6.40123L2.24442 6.11487L2.29247 6.04522C2.30848 6.022 2.33251 5.99878 2.34853 5.97556L2.46064 5.83625L2.57276 5.69694C2.6128 5.65051 2.64484 5.60407 2.68488 5.55764L2.91712 5.29449C2.95716 5.24806 2.9972 5.20936 3.03724 5.16292L3.15737 5.03909L3.40563 4.78369L3.99825 5.36415L3.766 5.59633L3.64588 5.71242C3.60584 5.75112 3.5738 5.78982 3.53376 5.83625L3.30953 6.07618C3.26949 6.11487 3.23745 6.16131 3.20542 6.20001L3.10932 6.34706L3.00521 6.47089C2.98919 6.49411 2.97318 6.50959 2.94915 6.5328L2.9011 6.59472L2.70089 6.85786C2.62882 6.94299 2.57276 7.03587 2.50869 7.12874L2.41259 7.26805L2.36454 7.33771C2.34853 7.36092 2.33251 7.38414 2.31649 7.40736L2.14832 7.68598C2.11628 7.73242 2.09226 7.77885 2.06022 7.82529L1.98014 7.97234L1.81997 8.2587C1.77192 8.35931 1.72387 8.45218 1.67582 8.5528C1.57972 8.74628 1.49964 8.94751 1.41155 9.14873L1.37951 9.22613L1.35549 9.30352L1.29943 9.45831L1.24337 9.6131C1.22736 9.66727 1.20333 9.71371 1.18731 9.76789C0.91503 10.596 0.746855 11.4551 0.690796 12.3219C0.634738 13.1887 0.690796 14.071 0.850963 14.9224C0.86698 15.0307 0.891005 15.1391 0.91503 15.2397L0.987105 15.557L1.0752 15.8743L1.12325 16.0291C1.13926 16.0833 1.15528 16.1297 1.1713 16.1839L1.27541 16.4935C1.29142 16.5476 1.31545 16.5941 1.33146 16.6482L1.39553 16.803L1.4596 16.9578L1.49163 17.0352C1.49964 17.0584 1.51566 17.0817 1.52367 17.1126L1.65981 17.4144C1.69985 17.5151 1.75591 17.6157 1.80396 17.7085C1.85201 17.8092 1.90807 17.902 1.95612 18.0026L2.12429 18.289L2.20438 18.4283L2.29247 18.5676L2.47666 18.8462C2.54073 18.9391 2.60479 19.0243 2.66886 19.1171C2.79699 19.3029 2.94114 19.4654 3.07729 19.6434C3.10932 19.6898 3.14936 19.7285 3.18139 19.7672L3.29351 19.8911L3.40563 20.0149L3.46169 20.0768L3.51775 20.1387C3.6699 20.3013 3.82206 20.4638 3.99024 20.6108L4.11036 20.7269L4.17443 20.7811C4.19846 20.8043 4.21447 20.8198 4.2385 20.8353L4.49477 21.052C4.53481 21.0907 4.58286 21.1216 4.6229 21.1603L4.75904 21.2609L5.02332 21.4699L5.2956 21.6634L5.43174 21.764C5.47979 21.795 5.52784 21.8259 5.57589 21.8569L5.86419 22.0349C5.91224 22.0659 5.96029 22.0891 6.00834 22.12L6.15249 22.2052L6.29664 22.2903C6.32067 22.3058 6.3447 22.3213 6.36872 22.329L6.4408 22.3677L6.74511 22.5225L6.81719 22.5612C6.84121 22.5767 6.86524 22.5844 6.89727 22.5999L7.04943 22.6695L7.20159 22.7392L7.28167 22.7701L7.32171 22.7856L7.36176 22.8011C8.20263 23.1416 9.08355 23.397 9.98049 23.5363C10.8854 23.6757 11.8064 23.7066 12.7193 23.6292C12.7514 23.6292 12.7754 23.6292 12.8074 23.6215L12.8955 23.6137L13.0637 23.5905L13.2319 23.575C13.2879 23.5673 13.344 23.5673 13.4001 23.5518L13.7364 23.4976L13.9046 23.4667L14.0728 23.428L14.4091 23.3583C14.5212 23.3351 14.6333 23.3042 14.7375 23.2732L14.9056 23.2268C14.9297 23.219 14.9617 23.2113 14.9857 23.2035L15.0658 23.1803L15.3941 23.0797C15.5063 23.0488 15.6104 23.0023 15.7145 22.9636L15.8746 22.9017L15.9547 22.8708C15.9787 22.863 16.0108 22.8475 16.0348 22.8398L16.3471 22.7082C16.4032 22.685 16.4512 22.6618 16.5073 22.6386L16.6595 22.5612L16.9638 22.4141C17.0679 22.3599 17.164 22.3058 17.2681 22.2516L17.4203 22.1665L17.4603 22.1432L17.5003 22.12L17.5724 22.0736L17.8607 21.8956C17.9088 21.8646 17.9568 21.8337 18.0049 21.8027L18.149 21.7098L18.2932 21.617L18.3652 21.5705L18.4373 21.5163C18.6215 21.377 18.8057 21.2455 18.9739 21.0984L19.102 20.9901L19.1661 20.9359L19.1981 20.9127L19.2301 20.8817L19.4864 20.6573C19.5264 20.6186 19.5745 20.5799 19.6145 20.5412L19.7347 20.4251L19.9749 20.1852L20.2072 19.9375L20.3193 19.8137C20.3593 19.775 20.3914 19.7285 20.4314 19.6821L20.6476 19.419L20.6716 19.388L20.6957 19.357L20.7437 19.2874L20.8478 19.1558C20.984 18.9778 21.1121 18.7921 21.2402 18.5986L21.2883 18.5289L21.3283 18.4593L21.4164 18.3122L21.5045 18.1652C21.5365 18.1187 21.5606 18.0723 21.5926 18.0181L21.7528 17.724C21.7768 17.6776 21.8088 17.6234 21.8329 17.577L21.9049 17.4222L22.0491 17.1204L22.1772 16.8108L22.2413 16.656C22.2653 16.6018 22.2813 16.5476 22.2973 16.5012L22.4095 16.1839C22.4335 16.1297 22.4415 16.0755 22.4575 16.0214L22.5056 15.8588L22.5536 15.6963L22.5776 15.6189C22.5856 15.5957 22.5936 15.5647 22.6017 15.5338C22.8739 14.6824 22.9941 13.7847 23.0101 12.8869Z" fill="#00ADEE"/>
<path d="M8.68314 0.000727473C8.85132 0.00846692 8.99547 0.062643 9.10759 0.178735C9.2197 0.294826 9.27576 0.434136 9.26775 0.596665C9.25974 0.759193 9.19568 0.898503 9.07555 1.00685L7.7782 2.16777C7.73816 2.19873 7.69811 2.23743 7.65006 2.27612L7.61002 2.32256L7.6821 2.53153L8.61107 5.47251C8.62708 5.52669 8.62708 5.59634 8.60306 5.666C8.58704 5.73565 8.547 5.78983 8.49895 5.82853L7.83426 6.43994C7.79421 6.48638 7.74616 6.50186 7.69811 6.48638C7.65006 6.47864 7.61002 6.43994 7.57799 6.38577L6.32068 3.78532C6.26462 3.64601 6.22458 3.57635 6.21657 3.56861C6.20856 3.56087 6.18454 3.56861 6.14449 3.59957C6.10445 3.63053 6.06441 3.66148 6.02437 3.70018L4.16643 5.34868C4.15842 5.35642 4.1424 5.36416 4.12639 5.3719C4.11037 5.37964 4.11037 5.4106 4.11838 5.45703C4.12639 5.50347 4.1424 5.54991 4.16643 5.61182L4.62291 6.62569C4.64693 6.67987 4.65494 6.74178 4.63892 6.81144C4.62291 6.88109 4.59087 6.93527 4.54282 6.9817L4.37465 7.13649C4.3266 7.18293 4.27855 7.19841 4.22249 7.19067C4.16643 7.18293 4.12639 7.15197 4.09435 7.0978L3.45369 6.10715C3.38962 6.00654 3.29352 5.89044 3.1814 5.75887L3.13335 5.72791C3.06128 5.65052 2.94916 5.54991 2.78899 5.44156L1.79596 4.80692C1.74791 4.76822 1.71587 4.72953 1.71587 4.67535C1.70786 4.62117 1.73189 4.57474 1.77994 4.5283L1.98816 4.34255C2.03621 4.29612 2.09227 4.2729 2.16434 4.26516C2.23642 4.25742 2.30048 4.26516 2.35654 4.28838L3.14136 4.66761C3.19742 4.69083 3.25348 4.70631 3.30153 4.71405C3.34958 4.72179 3.38962 4.71405 3.40564 4.69083C3.42165 4.66761 3.44568 4.65213 3.47771 4.63665L5.24756 2.97267C5.29561 2.92624 5.31162 2.8798 5.31162 2.83336C5.30362 2.77919 5.27158 2.74823 5.21552 2.72501L2.7009 1.5254C2.64484 1.50218 2.61281 1.46348 2.59679 1.41705C2.58878 1.36287 2.6048 1.31643 2.65285 1.27774L3.39763 0.596665C3.45369 0.542488 3.51775 0.51927 3.58983 0.503791C3.6619 0.488312 3.73398 0.496052 3.79004 0.51927L6.54491 1.47896C6.60097 1.50218 6.66504 1.50992 6.73711 1.49444C6.80919 1.47896 6.87325 1.448 6.9213 1.40931L8.25069 0.155516C8.37082 0.0471641 8.51497 -0.00701197 8.68314 0.000727473Z" fill="#00ADEE"/>
</svg>
