<svg width="18" height="23" viewBox="0 0 18 23" fill="none" xmlns="http://www.w3.org/2000/svg">
<path d="M17.1607 9.59058C17.1607 16.5906 9.03788 22.5906 9.03788 22.5906C9.03788 22.5906 0.915039 16.5906 0.915039 9.59058C0.915039 7.20363 1.77084 4.91444 3.29416 3.22661C4.81749 1.53879 6.88357 0.590576 9.03788 0.590576C11.1922 0.590576 13.2583 1.53879 14.7816 3.22661C16.3049 4.91444 17.1607 7.20363 17.1607 9.59058Z" fill="#0393FB"/>
<path d="M9.03768 14.3888C11.4294 14.3888 13.3683 12.2406 13.3683 9.59054C13.3683 6.94051 11.4294 4.79224 9.03768 4.79224C6.64593 4.79224 4.70703 6.94051 4.70703 9.59054C4.70703 12.2406 6.64593 14.3888 9.03768 14.3888Z" fill="white"/>
</svg>
