<svg width="16" height="18" viewBox="0 0 16 18" fill="none" xmlns="http://www.w3.org/2000/svg">
<path fill-rule="evenodd" clip-rule="evenodd" d="M0.916748 17.2142C0.916748 17.0992 0.964016 16.9889 1.04815 16.9075C1.13229 16.8262 1.24641 16.7805 1.3654 16.7805H14.8248C14.9438 16.7805 15.0579 16.8262 15.142 16.9075C15.2262 16.9889 15.2735 17.0992 15.2735 17.2142C15.2735 17.3292 15.2262 17.4395 15.142 17.5209C15.0579 17.6022 14.9438 17.6479 14.8248 17.6479H1.3654C1.24641 17.6479 1.13229 17.6022 1.04815 17.5209C0.964016 17.4395 0.916748 17.3292 0.916748 17.2142Z" fill="white"/>
<path fill-rule="evenodd" clip-rule="evenodd" d="M2.71126 8.10664V16.7805H4.95449V8.10664H2.71126ZM2.26261 7.23926C2.14362 7.23926 2.02951 7.28495 1.94537 7.36628C1.86123 7.44762 1.81396 7.55793 1.81396 7.67295V17.2142C1.81396 17.3292 1.86123 17.4395 1.94537 17.5208C2.02951 17.6022 2.14362 17.6479 2.26261 17.6479H5.40314C5.52213 17.6479 5.63625 17.6022 5.72038 17.5208C5.80452 17.4395 5.85179 17.3292 5.85179 17.2142V7.67295C5.85179 7.55793 5.80452 7.44762 5.72038 7.36628C5.63625 7.28495 5.52213 7.23926 5.40314 7.23926H2.26261Z" fill="white"/>
<path fill-rule="evenodd" clip-rule="evenodd" d="M4.95459 0.300293L12.1329 2.90245V8.97414H9.88971C9.77072 8.97414 9.6566 9.01983 9.57247 9.10116C9.48833 9.1825 9.44106 9.29281 9.44106 9.40783V16.7806H4.95459V0.300293ZM6.30053 4.20352H7.19783V5.07091H6.30053V4.20352ZM8.99241 4.20352H8.09512V5.07091H8.99241V4.20352ZM9.88971 4.20352H10.787V5.07091H9.88971V4.20352ZM7.19783 5.93829H6.30053V6.80568H7.19783V5.93829ZM8.09512 5.93829H8.99241V6.80568H8.09512V5.93829ZM10.787 5.93829H9.88971V6.80568H10.787V5.93829ZM6.30053 7.67306H7.19783V8.54044H6.30053V7.67306ZM8.99241 7.67306H8.09512V8.54044H8.99241V7.67306ZM9.88971 7.67306H10.787V8.54044H9.88971V7.67306ZM7.19783 9.40783H6.30053V10.2752H7.19783V9.40783ZM8.09512 9.40783H8.99241V10.2752H8.09512V9.40783ZM6.30053 11.1426H7.19783V12.01H6.30053V11.1426ZM8.99241 11.1426H8.09512V12.01H8.99241V11.1426ZM7.19783 12.8774H6.30053V13.7448H7.19783V12.8774ZM8.09512 12.8774H8.99241V13.7448H8.09512V12.8774ZM6.30053 14.6121H7.19783V15.4795H6.30053V14.6121ZM8.99241 14.6121H8.09512V15.4795H8.99241V14.6121Z" fill="white"/>
<path fill-rule="evenodd" clip-rule="evenodd" d="M10.3382 9.84151V16.7806H13.4787V9.84151H10.3382ZM9.88957 8.97412C9.77058 8.97412 9.65646 9.01981 9.57232 9.10115C9.48819 9.18248 9.44092 9.29279 9.44092 9.40781V17.2143C9.44092 17.3293 9.48819 17.4396 9.57232 17.5209C9.65646 17.6023 9.77058 17.648 9.88957 17.648H13.9274C14.0464 17.648 14.1605 17.6023 14.2446 17.5209C14.3288 17.4396 14.376 17.3293 14.376 17.2143V9.40781C14.376 9.29279 14.3288 9.18248 14.2446 9.10115C14.1605 9.01981 14.0464 8.97412 13.9274 8.97412H9.88957Z" fill="white"/>
<path fill-rule="evenodd" clip-rule="evenodd" d="M12.5815 11.5764H11.2356V10.709H12.5815V11.5764ZM12.5815 13.3111H11.2356V12.4438H12.5815V13.3111ZM12.5815 15.0459H11.2356V14.1785H12.5815V15.0459ZM12.5815 16.7807H11.2356V15.9133H12.5815V16.7807ZM4.05721 4.20361V7.67315H3.15991V4.20361H4.05721Z" fill="white"/>
</svg>
