<svg width="25" height="28" viewBox="0 0 25 28" fill="none" xmlns="http://www.w3.org/2000/svg">
<path d="M6.79667 25.6114C6.77874 25.5716 6.76977 25.5518 6.76977 25.5319C6.66213 24.3194 6.66213 24.3194 7.62187 23.7629C8.57263 23.2064 9.5234 22.6498 10.4742 22.0933C10.6715 21.984 10.815 21.8747 10.7881 21.5765C10.6177 19.3305 10.4562 17.0944 10.2858 14.8484C10.2768 14.7491 10.241 14.6596 10.2141 14.5503C9.13771 14.4708 8.09725 14.6894 7.06576 14.9379C4.8772 15.4745 2.67968 15.9615 0.491122 16.4584C0.365549 16.4882 0.231007 16.4882 0.105434 16.5081C-0.0829252 15.7131 -0.0560168 15.5938 0.518031 15.236C1.63025 14.5205 2.75143 13.8248 3.87262 13.1391C4.15964 12.9602 4.28522 12.7614 4.25831 12.3937C4.2314 12.0658 4.26728 11.7279 4.25831 11.3999C4.25831 10.9925 4.4377 10.7838 4.79648 10.7639C4.95793 10.754 5.12835 10.744 5.2898 10.744C6.0253 10.7639 6.06118 10.7937 6.21366 11.6186C6.3482 11.549 6.48274 11.4894 6.59935 11.4099C7.63084 10.7738 8.64439 10.108 9.68485 9.49182C9.99878 9.303 10.0795 9.08436 10.0974 8.71665C10.1513 7.04705 10.2051 5.37746 10.3396 3.7178C10.4203 2.77368 10.7522 1.88919 11.2814 1.12396C11.7837 0.408417 12.3129 0.428293 12.7524 1.18359C13.5507 2.53517 13.7391 4.07557 13.8018 5.64578C13.8377 6.60978 13.8467 7.56383 13.8915 8.52783C13.9005 8.68684 13.9723 8.89553 14.0799 8.97504C15.2908 9.85953 16.5106 10.7142 17.7395 11.5788C17.7753 11.5987 17.8202 11.5987 17.7843 11.5888C17.9458 11.3105 18.0713 10.8931 18.2417 10.8633C18.6992 10.7937 19.1746 10.8732 19.65 10.9328C19.7127 10.9428 19.7755 11.1117 19.8024 11.2111C19.8293 11.3204 19.8473 11.4496 19.8293 11.5589C19.641 12.6124 20.0446 13.2087 20.9236 13.636C21.8206 14.0733 22.6547 14.6795 23.5068 15.2261C24.1078 15.6037 24.1437 15.6932 23.9553 16.5578C23.0942 16.369 22.2421 16.1801 21.3811 15.9913C19.4526 15.554 17.5242 15.0969 15.5868 14.6894C15.0665 14.5801 14.5194 14.5901 13.9812 14.5901C13.8736 14.5901 13.6763 14.7888 13.6673 14.918C13.4969 17.1441 13.3444 19.3703 13.174 21.5964C13.156 21.8747 13.2457 22.0138 13.461 22.1331C14.4835 22.7095 15.5061 23.2958 16.5286 23.8822C17.273 24.3095 17.3896 24.6573 17.1385 25.671C15.9545 25.3629 14.7616 25.0449 13.5776 24.7368C13.5059 24.717 13.4341 24.6971 13.3623 24.6772C12.7883 24.5182 12.7973 24.5281 12.6358 25.184C12.4564 25.9095 12.2591 26.635 12.0707 27.3605C12.0169 27.3605 11.9541 27.3704 11.9003 27.3704C11.6492 26.4462 11.407 25.5319 11.1379 24.548C9.69382 24.876 8.2587 25.2337 6.79667 25.6114Z" fill="#0393FB"/>
</svg>
