<svg width="29" height="23" viewBox="0 0 29 23" fill="none" xmlns="http://www.w3.org/2000/svg">
<path d="M10.4616 8.22193C10.3496 8.22193 10.2423 8.2664 10.1632 8.34554C10.084 8.42468 10.0396 8.53203 10.0396 8.64396C10.0396 8.75588 10.084 8.86323 10.1632 8.94237C10.2423 9.02152 10.3496 9.06598 10.4616 9.06598H10.8836C10.3713 9.45002 10.0396 10.0628 10.0396 10.7541V14.1303C10.0396 14.3541 10.1285 14.5688 10.2868 14.7271C10.4451 14.8854 10.6597 14.9743 10.8836 14.9743C11.1075 14.9743 11.3221 14.8854 11.4804 14.7271C11.6387 14.5688 11.7276 14.3541 11.7276 14.1303V13.7082H17.636V14.1303C17.636 14.3541 17.7249 14.5688 17.8832 14.7271C18.0415 14.8854 18.2562 14.9743 18.48 14.9743C18.7039 14.9743 18.9186 14.8854 19.0768 14.7271C19.2351 14.5688 19.3241 14.3541 19.3241 14.1303V10.7541C19.3241 10.0628 18.9924 9.45002 18.48 9.06598H18.902C19.014 9.06598 19.1213 9.02152 19.2005 8.94237C19.2796 8.86323 19.3241 8.75588 19.3241 8.64396C19.3241 8.53203 19.2796 8.42468 19.2005 8.34554C19.1213 8.2664 19.014 8.22193 18.902 8.22193H18.345L18.2285 7.52137C18.1626 7.12737 17.9591 6.76951 17.6541 6.51142C17.3492 6.25333 16.9627 6.11173 16.5632 6.11182H12.8004C12.4009 6.11173 12.0144 6.25333 11.7095 6.51142C11.4045 6.76951 11.201 7.12737 11.1351 7.52137L11.0186 8.22193H10.4616ZM11.7994 8.67181L11.9682 7.66064C12.0009 7.4637 12.1024 7.28474 12.2546 7.15555C12.4069 7.02636 12.5999 6.95531 12.7996 6.95502H16.5623C16.7623 6.95491 16.9558 7.02578 17.1083 7.155C17.2609 7.28423 17.3626 7.46341 17.3954 7.66064L17.5642 8.67181C17.4482 8.65254 17.3307 8.64294 17.2131 8.64311H12.1488C12.029 8.64311 11.9133 8.65324 11.7994 8.67181ZM12.9937 11.3863C12.9937 11.5542 12.927 11.7152 12.8083 11.8339C12.6896 11.9526 12.5286 12.0193 12.3607 12.0193C12.1928 12.0193 12.0318 11.9526 11.9131 11.8339C11.7943 11.7152 11.7276 11.5542 11.7276 11.3863C11.7276 11.2184 11.7943 11.0574 11.9131 10.9386C12.0318 10.8199 12.1928 10.7532 12.3607 10.7532C12.5286 10.7532 12.6896 10.8199 12.8083 10.9386C12.927 11.0574 12.9937 11.2184 12.9937 11.3863ZM17.0029 12.0193C16.835 12.0193 16.674 11.9526 16.5553 11.8339C16.4366 11.7152 16.3699 11.5542 16.3699 11.3863C16.3699 11.2184 16.4366 11.0574 16.5553 10.9386C16.674 10.8199 16.835 10.7532 17.0029 10.7532C17.1708 10.7532 17.3318 10.8199 17.4506 10.9386C17.5693 11.0574 17.636 11.2184 17.636 11.3863C17.636 11.5542 17.5693 11.7152 17.4506 11.8339C17.3318 11.9526 17.1708 12.0193 17.0029 12.0193Z" fill="white"/>
<path fill-rule="evenodd" clip-rule="evenodd" d="M3.9733 12.0226L1.77205 14.2364L0.371582 12.8539L4.12412 9.13725L5.48868 9.15521L9.24122 12.9616L7.87666 14.3262L5.78134 12.2075C5.9241 14.1485 6.69376 15.9905 7.97436 17.4561C9.25497 18.9216 10.9772 19.9313 12.8815 20.3331C14.7858 20.7348 16.7691 20.5068 18.5326 19.6834C20.296 18.86 21.7442 17.4859 22.6588 15.7679L24.1185 16.8398C22.9688 18.8779 21.1868 20.4862 19.042 21.4216C16.8971 22.3569 14.506 22.5685 12.2302 22.0243C9.95441 21.4801 7.91768 20.2097 6.42799 18.4052C4.93829 16.6007 4.07663 14.3603 3.9733 12.0226ZM23.7056 11.1859L21.4864 8.93975L20.1218 10.3043L23.8743 14.0928L25.2389 14.1107L28.9914 10.3941L27.6448 9.02952L25.501 11.1482C25.417 8.83642 24.591 6.61312 23.1453 4.80721C21.6996 3.00131 19.711 1.70872 17.4737 1.1207C15.2364 0.532677 12.8692 0.680448 10.7224 1.54215C8.5756 2.40386 6.76319 3.93372 5.55332 5.9054L7.00765 6.97191C7.99387 5.30395 9.49329 3.99985 11.2819 3.25446C13.0705 2.50906 15.0523 2.36239 16.9311 2.83634C18.81 3.3103 20.485 4.37944 21.7061 5.88404C22.9271 7.38864 23.6285 9.24792 23.7056 11.1841V11.1859Z" fill="white"/>
</svg>
