<svg width="20" height="19" viewBox="0 0 20 19" fill="none" xmlns="http://www.w3.org/2000/svg">
<path d="M15.2371 17.7683L15.0705 17.4806L15.2918 17.7438C15.2877 17.7552 15.2811 17.7628 15.273 17.7683C15.2667 17.7726 15.2627 17.7737 15.2604 17.7742C15.2574 17.7748 15.2537 17.7749 15.2495 17.7741C15.248 17.7738 15.2465 17.7734 15.2452 17.7729C15.2429 17.7721 15.241 17.7711 15.2394 17.7701C15.2387 17.7696 15.238 17.7691 15.2371 17.7683ZM10.105 2.85077C11.5897 3.14056 12.8994 4.01496 13.7448 5.28494C14.5904 6.55533 14.9017 8.11757 14.607 9.62788C13.9925 12.7758 10.9759 14.8175 7.88692 14.2146C4.79793 13.6117 2.77052 10.5855 3.38497 7.43749C3.99941 4.28952 7.01601 2.24783 10.105 2.85077Z" stroke="#2F2F2F" stroke-width="2"/>
</svg>
