<svg width="59" height="60" viewBox="0 0 59 60" fill="none" xmlns="http://www.w3.org/2000/svg">
<g filter="url(#filter0_d_4_76905)">
<circle cx="25.1122" cy="23.945" r="23.1122" fill="#0366FB"/>
<circle cx="25.1122" cy="23.945" r="22.6122" stroke="white"/>
</g>
<path d="M35.604 28.7309C35.6949 28.5963 35.6801 28.4111 35.5607 28.2922C35.4251 28.1572 35.2057 28.1577 35.0708 28.2933L35.0707 28.2934L31.915 31.4618L31.0607 32.3195L31.0607 31.1089L31.0609 17.8089L31.0557 17.7314C31.0273 17.5692 30.8849 17.4457 30.7145 17.4457C30.5231 17.4457 30.368 17.6007 30.368 17.7921L30.3679 31.1112L30.3679 32.3223L29.5135 31.4639L26.3708 28.3063L26.3069 28.2509C26.1727 28.1593 25.9874 28.1733 25.868 28.2922C25.7324 28.4271 25.7319 28.6465 25.8669 28.7821L30.4117 33.348L30.4127 33.3485L30.4695 33.4053C30.4804 33.4162 30.4921 33.4264 30.5044 33.4358L30.5138 33.443L30.5141 33.4433L30.5147 33.4436L30.5239 33.4497C30.5303 33.454 30.538 33.4588 30.5503 33.4663C30.5529 33.4677 30.5542 33.4683 30.5544 33.4684C30.5544 33.4684 30.5544 33.4684 30.5544 33.4684L30.5612 33.4713L30.5686 33.4747C30.5842 33.482 30.576 33.478 30.5912 33.485C30.5966 33.487 30.6 33.488 30.6017 33.4885L30.6132 33.4917L30.6131 33.4918C30.6217 33.4945 30.6232 33.4949 30.6253 33.4954C30.6271 33.4959 30.6293 33.4965 30.6361 33.4985C30.6418 33.4998 30.6453 33.5004 30.6468 33.5006L30.6584 33.5022L30.6584 33.5023C30.6614 33.5028 30.6643 33.5032 30.6673 33.5036L30.7294 33.5069L30.7322 33.5069C30.7323 33.5069 30.7323 33.5069 30.7324 33.5069C30.7379 33.5066 30.7422 33.5061 30.7456 33.5056L30.7557 33.5043L30.7557 33.5044L30.7687 33.5027L30.777 33.5017C30.7833 33.5006 30.7877 33.4995 30.7906 33.4987L30.8001 33.4961L30.8002 33.4962C30.808 33.4942 30.8113 33.4932 30.8231 33.4901C30.8285 33.4883 30.8316 33.487 30.8331 33.4864L30.8433 33.482L30.8434 33.4821C30.8499 33.4795 30.8574 33.4763 30.8692 33.4711C30.87 33.4707 30.8708 33.4704 30.8716 33.47C30.8735 33.4692 30.8755 33.4683 30.8777 33.4673L30.8991 33.5157L35.604 28.7309ZM35.604 28.7309L35.5489 28.7951L30.9723 33.3928M35.604 28.7309L30.9723 33.3928M30.9723 33.3928L30.9108 33.4465C30.9104 33.4468 30.9099 33.4471 30.9095 33.4473L30.9723 33.3928ZM15.1534 19.5967L18.3082 16.426L19.1625 15.5673L19.1626 16.7786L19.1634 30.0812L19.1686 30.1586C19.197 30.3209 19.3393 30.4444 19.5098 30.4444C19.7011 30.4444 19.8562 30.2893 19.8562 30.098L19.8554 16.7776L19.8554 15.5662L20.7098 16.4248L23.8534 19.5838L23.9173 19.6391C24.0515 19.7307 24.2368 19.7167 24.3562 19.5979C24.4918 19.4629 24.4923 19.2435 24.3574 19.108L19.7684 14.4977L19.7071 14.4446L19.7059 14.4439L19.6977 14.4386C19.6915 14.4345 19.6858 14.4311 19.6749 14.4243C19.6744 14.4241 19.674 14.4238 19.6735 14.4235C19.6728 14.4231 19.6723 14.4229 19.672 14.4228L19.6652 14.4198L19.6575 14.4162C19.651 14.4131 19.645 14.4104 19.6335 14.4053L15.1534 19.5967ZM15.1534 19.5967C15.0346 19.7162 14.8494 19.731 14.7147 19.64L14.6536 19.5875C14.5434 19.4685 14.5319 19.2899 14.6202 19.1591L14.6753 19.095L19.2519 14.4972L19.3134 14.4436C19.3138 14.4433 19.3143 14.443 19.3147 14.4427C19.3258 14.4358 19.3337 14.4311 19.3402 14.4274L19.3465 14.4239L19.3524 14.4203C19.3524 14.4203 19.3524 14.4203 19.3525 14.4203C19.3527 14.4202 19.3535 14.4197 19.355 14.4189C19.3668 14.4138 19.3743 14.4105 19.3808 14.4079L19.3809 14.408L19.3911 14.4037C19.3926 14.403 19.3958 14.4017 19.4013 14.3999C19.4039 14.3992 19.4061 14.3986 19.4081 14.3981C19.4151 14.3962 19.419 14.3951 19.4246 14.3937L19.4246 14.3938L19.435 14.391C19.4369 14.3904 19.4403 14.3896 19.4458 14.3886C19.4501 14.388 19.4532 14.3876 19.4557 14.3873C19.4606 14.3866 19.4635 14.3862 19.4694 14.3856L19.4694 14.3857L19.4807 14.3841C19.4828 14.3838 19.4864 14.3835 19.4916 14.3832C19.492 14.3832 19.4923 14.3832 19.4927 14.3832L19.4952 14.3832L19.5569 14.3864C19.5599 14.3868 19.5629 14.3872 19.5658 14.3877L19.5658 14.3879L19.5775 14.3895C19.579 14.3897 19.5826 14.3902 19.5885 14.3916C19.5917 14.3925 19.5944 14.3933 19.5967 14.394C19.6031 14.3958 19.6068 14.3969 19.6125 14.3986L19.6124 14.3988L19.6246 14.4022C19.6257 14.4025 19.6282 14.4033 19.6327 14.4049L15.1534 19.5967Z" stroke="white"/>
<defs>
<filter id="filter0_d_4_76905" x="0" y="0.832764" width="58.2246" height="58.2244" filterUnits="userSpaceOnUse" color-interpolation-filters="sRGB">
<feFlood flood-opacity="0" result="BackgroundImageFix"/>
<feColorMatrix in="SourceAlpha" type="matrix" values="0 0 0 0 0 0 0 0 0 0 0 0 0 0 0 0 0 0 127 0" result="hardAlpha"/>
<feOffset dx="4" dy="6"/>
<feGaussianBlur stdDeviation="3"/>
<feComposite in2="hardAlpha" operator="out"/>
<feColorMatrix type="matrix" values="0 0 0 0 0 0 0 0 0 0 0 0 0 0 0 0 0 0 0.09 0"/>
<feBlend mode="multiply" in2="BackgroundImageFix" result="effect1_dropShadow_4_76905"/>
<feBlend mode="normal" in="SourceGraphic" in2="effect1_dropShadow_4_76905" result="shape"/>
</filter>
</defs>
</svg>
