<svg width="60" height="60" viewBox="0 0 60 60" fill="none" xmlns="http://www.w3.org/2000/svg">
<g filter="url(#filter0_d_4_76904)">
<circle cx="26.0263" cy="23.945" r="23.1122" fill="white"/>
<circle cx="26.0263" cy="23.945" r="22.6122" stroke="#C6C6C6"/>
</g>
<path d="M16.0675 19.5967L19.2222 16.426L20.0766 15.5673L20.0767 16.7786L20.0774 30.0812L20.0826 30.1586C20.111 30.3209 20.2534 30.4444 20.4238 30.4444C20.6151 30.4444 20.7702 30.2893 20.7702 30.098L20.7695 16.7776L20.7694 15.5662L21.6239 16.4248L24.7675 19.5838L24.8313 19.6391C24.9656 19.7307 25.1508 19.7167 25.2703 19.5979C25.4059 19.4629 25.4064 19.2435 25.2714 19.108L20.6824 14.4977L20.6212 14.4446L20.6199 14.4439L20.6117 14.4386C20.6055 14.4345 20.5999 14.4311 20.5889 14.4243C20.5885 14.4241 20.588 14.4238 20.5876 14.4235C20.5868 14.4231 20.5864 14.4229 20.5861 14.4228L20.5793 14.4198L20.5716 14.4162C20.5651 14.4131 20.5591 14.4104 20.5476 14.4053L16.0675 19.5967ZM16.0675 19.5967C16.0675 19.5967 16.0675 19.5968 16.0675 19.5968C15.9486 19.7162 15.7634 19.731 15.6287 19.64L15.5677 19.5875C15.4574 19.4685 15.4459 19.2899 15.5343 19.1591L15.5894 19.095L20.166 14.4972L20.2275 14.4436C20.2279 14.4433 20.2284 14.443 20.2288 14.4427C20.2398 14.4358 20.2477 14.4311 20.2543 14.4274L20.2606 14.4239L20.2665 14.4203C20.2668 14.4202 20.2676 14.4197 20.2691 14.4189C20.2809 14.4138 20.2884 14.4105 20.2949 14.4079L20.2949 14.408L20.3052 14.4037C20.3067 14.403 20.3099 14.4017 20.3153 14.3999C20.318 14.3992 20.3202 14.3986 20.3222 14.3981C20.3291 14.3962 20.3331 14.3951 20.3386 14.3937L20.3387 14.3938L20.349 14.391C20.351 14.3904 20.3544 14.3896 20.3598 14.3886C20.3641 14.388 20.3672 14.3876 20.3698 14.3873C20.3746 14.3866 20.3776 14.3862 20.3835 14.3856L20.3835 14.3857L20.3948 14.3841C20.3969 14.3838 20.4005 14.3835 20.4056 14.3832C20.406 14.3832 20.4064 14.3832 20.4068 14.3832L20.4092 14.3832L20.4709 14.3864C20.4739 14.3868 20.4769 14.3872 20.4799 14.3877L20.4799 14.3879L20.4916 14.3895C20.4931 14.3897 20.4966 14.3902 20.5025 14.3916C20.5058 14.3925 20.5085 14.3933 20.5108 14.394C20.5172 14.3958 20.5209 14.3969 20.5266 14.3986L20.5265 14.3988L20.5387 14.4022C20.5398 14.4025 20.5423 14.4033 20.5468 14.4049L16.0675 19.5967ZM36.4747 28.2922C36.5942 28.4111 36.609 28.5963 36.518 28.7309L36.4629 28.7951L31.8864 33.3928L31.8249 33.4465C31.8244 33.4468 31.824 33.4471 31.8236 33.4473C31.8125 33.4542 31.8046 33.4589 31.7981 33.4626L31.7917 33.4662L31.7859 33.4697C31.7859 33.4697 31.7858 33.4697 31.7858 33.4697C31.7856 33.4699 31.7848 33.4703 31.7833 33.4711C31.7815 33.4719 31.7798 33.4726 31.7783 33.4733C31.7693 33.4772 31.763 33.4799 31.7575 33.4821L31.7574 33.482L31.7471 33.4864C31.7457 33.487 31.7425 33.4883 31.7371 33.4901C31.7254 33.4932 31.7221 33.4942 31.7142 33.4962L31.7142 33.4961L31.7046 33.4987C31.7017 33.4995 31.6974 33.5006 31.691 33.5017L31.6827 33.5027L31.6697 33.5044L31.6697 33.5043L31.6597 33.5056C31.6563 33.5061 31.652 33.5066 31.6465 33.5069C31.6464 33.5069 31.6463 33.5069 31.6463 33.5069L31.6435 33.5069L31.5814 33.5036C31.5784 33.5032 31.5754 33.5028 31.5725 33.5023L31.5725 33.5022L31.5609 33.5006C31.5599 33.5005 31.5581 33.5002 31.5555 33.4997C31.554 33.4994 31.5522 33.499 31.5501 33.4985C31.5434 33.4965 31.5412 33.4959 31.5394 33.4954C31.5372 33.4949 31.5358 33.4945 31.5272 33.4918L31.5272 33.4917L31.5157 33.4885C31.5141 33.488 31.5106 33.487 31.5052 33.485C31.4992 33.4822 31.4969 33.4812 31.4953 33.4805C31.4929 33.4795 31.4921 33.4792 31.4826 33.4747L31.4753 33.4713L31.4685 33.4684C31.4683 33.4683 31.4669 33.4677 31.4643 33.4663C31.452 33.4588 31.4444 33.454 31.438 33.4497L31.4287 33.4436L31.4282 33.4433L31.4279 33.443L31.4184 33.4358C31.4062 33.4264 31.3945 33.4162 31.3836 33.4053L31.3267 33.3485L31.3258 33.348L26.7809 28.7821C26.646 28.6465 26.6465 28.4271 26.7821 28.2922C26.9015 28.1733 27.0868 28.1593 27.221 28.2509L27.2849 28.3063L30.4276 31.4639L31.282 32.3223L31.282 31.1112L31.2821 17.7921C31.2821 17.6007 31.4372 17.4457 31.6285 17.4457C31.7989 17.4457 31.9413 17.5692 31.9697 17.7314L31.9749 17.8089L31.9748 31.1089L31.9748 32.3195L32.8291 31.4618L35.9847 28.2934L35.9848 28.2933C36.1198 28.1577 36.3391 28.1572 36.4747 28.2922Z" stroke="#F4CE02"/>
<defs>
<filter id="filter0_d_4_76904" x="0.914062" y="0.832764" width="58.2246" height="58.2244" filterUnits="userSpaceOnUse" color-interpolation-filters="sRGB">
<feFlood flood-opacity="0" result="BackgroundImageFix"/>
<feColorMatrix in="SourceAlpha" type="matrix" values="0 0 0 0 0 0 0 0 0 0 0 0 0 0 0 0 0 0 127 0" result="hardAlpha"/>
<feOffset dx="4" dy="6"/>
<feGaussianBlur stdDeviation="3"/>
<feComposite in2="hardAlpha" operator="out"/>
<feColorMatrix type="matrix" values="0 0 0 0 0 0 0 0 0 0 0 0 0 0 0 0 0 0 0.09 0"/>
<feBlend mode="multiply" in2="BackgroundImageFix" result="effect1_dropShadow_4_76904"/>
<feBlend mode="normal" in="SourceGraphic" in2="effect1_dropShadow_4_76904" result="shape"/>
</filter>
</defs>
</svg>
