<svg width="18" height="20" viewBox="0 0 18 20" fill="none" xmlns="http://www.w3.org/2000/svg">
<path d="M12.4756 0.392578C15.3507 0.392578 17.2759 2.62814 17.2759 5.95471V13.6321C17.2759 16.9502 15.3507 19.1867 12.4756 19.1867H5.12233C2.2472 19.1867 0.313477 16.9502 0.313477 13.6321V5.95471C0.313477 2.62814 2.2472 0.392578 5.12233 0.392578H12.4756ZM8.49786 5.015C8.15013 5.015 7.86177 5.33544 7.86177 5.71978V10.4663C7.86177 10.7106 7.9805 10.9455 8.17557 11.0677L11.5002 13.2666C11.602 13.3418 11.7207 13.3699 11.831 13.3699C12.043 13.3699 12.255 13.2478 12.3738 13.0223C12.5604 12.6924 12.4586 12.2602 12.1533 12.0544L9.13395 10.0622V5.71978C9.13395 5.33544 8.85407 5.015 8.49786 5.015Z" fill="#0393FB"/>
</svg>
