<svg width="14" height="15" viewBox="0 0 14 15" fill="none" xmlns="http://www.w3.org/2000/svg">
<path d="M13.3956 7.55751C13.4725 7.48 13.511 7.38588 13.511 7.27514C13.511 7.15334 13.4725 7.05368 13.3956 6.97616L8.68328 2.09285C8.60638 2.01534 8.51301 1.97658 8.40317 1.97658C8.29332 1.97658 8.19995 2.01534 8.12306 2.09285L7.18389 3.07283C7.10699 3.15035 7.06855 3.24447 7.06855 3.3552C7.06855 3.46594 7.10699 3.56559 7.18389 3.65418L9.40825 5.96296H3.4107C3.30085 5.96296 3.20748 6.00725 3.13059 6.09584C3.0537 6.17335 3.01526 6.26747 3.01526 6.37821V8.00598C3.01526 8.11671 3.0537 8.21637 3.13059 8.30496C3.20748 8.38247 3.30085 8.42123 3.4107 8.42123H9.57302L7.18389 10.8961C7.10699 10.9736 7.06855 11.0733 7.06855 11.1951C7.06855 11.3058 7.10699 11.3999 7.18389 11.4775L8.12306 12.4574C8.19995 12.5349 8.29332 12.5737 8.40317 12.5737C8.51301 12.5737 8.60638 12.5349 8.68328 12.4574L13.3956 7.55751ZM5.40439 2.02641H2.01017V12.5239H5.40439V14.5503H1.00508C0.730472 14.5503 0.494304 14.4506 0.296582 14.2513C0.0988608 14.052 0 13.8139 0 13.5371V1.0132C0 0.736373 0.0988608 0.498297 0.296582 0.298978C0.494304 0.0996594 0.730472 0 1.00508 0H5.40439V2.02641Z" fill="#01BAFF"/>
</svg>
