<svg width="45" height="45" viewBox="0 0 45 45" fill="none" xmlns="http://www.w3.org/2000/svg">
<path d="M45 22.5C45 34.9264 34.9264 45 22.5 45C10.0736 45 0 34.9264 0 22.5C0 10.0736 10.0736 0 22.5 0C34.9264 0 45 10.0736 45 22.5ZM1.68353 22.5C1.68353 33.9966 11.0034 43.3165 22.5 43.3165C33.9966 43.3165 43.3165 33.9966 43.3165 22.5C43.3165 11.0034 33.9966 1.68353 22.5 1.68353C11.0034 1.68353 1.68353 11.0034 1.68353 22.5Z" fill="white"/>
<path d="M34 20.58H33.96V20C33.96 19.88 33.9467 19.7 33.92 19.46V19.42C33.92 19.3133 33.9067 19.1533 33.88 18.94L33.84 18.46C33.8267 18.2467 33.8133 18.0933 33.8 18C33.7467 17.76 33.6533 17.4133 33.52 16.96C33.4267 16.6267 33.28 16.3467 33.08 16.12C32.64 15.6 32.0533 15.3 31.32 15.22C31.08 15.1933 30.7267 15.1667 30.26 15.14L29.16 15.08C28.4933 15.0533 27.98 15.04 27.62 15.04C26.9533 15.0133 26.4467 15 26.1 15H25.12C24.2267 14.9867 23.56 14.9867 23.12 15C22.4533 15 21.4533 15.0133 20.12 15.04L18.44 15.1C17.8533 15.1267 17.4067 15.1533 17.1 15.18C16.8067 15.2067 16.52 15.2467 16.24 15.3C15.5867 15.46 15.0933 15.8133 14.76 16.36C14.5333 16.72 14.3733 17.16 14.28 17.68C14.2267 17.9333 14.1733 18.3133 14.12 18.82C14.0933 19.06 14.0667 19.4267 14.04 19.92V19.98C14.0133 20.4067 14 20.7267 14 20.94C14 22.14 14.0067 23.04 14.02 23.64C14.02 23.8 14.0333 24.0267 14.06 24.32C14.0867 24.7467 14.1133 25.0667 14.14 25.28L14.16 25.52C14.1733 25.7333 14.1867 25.8933 14.2 26C14.2533 26.3467 14.36 26.74 14.52 27.18C14.7733 27.8733 15.2667 28.3467 16 28.6C16.3067 28.7067 16.7667 28.7867 17.38 28.84H17.4C17.5733 28.8533 17.8267 28.8667 18.16 28.88L18.54 28.9C18.9667 28.9267 19.2867 28.94 19.5 28.94L20.98 28.98L24.76 29.02L27.78 28.96L29.02 28.92C29.2067 28.92 29.3467 28.9133 29.44 28.9H29.5C30.0733 28.8733 30.5067 28.8467 30.8 28.82C31.1733 28.7933 31.4533 28.76 31.64 28.72C32.56 28.5067 33.1733 27.9867 33.48 27.16C33.6933 26.6 33.82 26 33.86 25.36C33.8867 25.1467 33.9133 24.82 33.94 24.38L34 22.96V20.58ZM21.94 24.6V18.98L27.34 21.8L21.94 24.6Z" fill="white"/>
</svg>
